<svg width="32768" height="7180" viewBox="0 0 32768 7180" fill="none" xmlns="http://www.w3.org/2000/svg">
<g filter="url(#filter0_d_1_2)">
<path d="M3123.69 1509.66C2856.55 1509.66 2617.36 1562.47 2406.14 1668.08C2201.12 1773.69 2027.17 1925.9 1884.28 2124.71C1741.39 2317.3 1632.67 2553.37 1558.12 2832.94C1489.78 3112.51 1455.61 3426.24 1455.61 3774.15C1455.61 4246.31 1511.52 4650.12 1623.35 4985.6C1741.39 5314.87 1924.66 5566.48 2173.16 5740.43C2421.67 5914.39 2738.51 6001.36 3123.69 6001.36C3397.04 6001.36 3667.29 5970.3 3934.43 5908.17C4207.79 5846.05 4502.89 5759.07 4819.73 5647.24V6830.74C4527.74 6948.78 4238.85 7035.76 3953.07 7091.67C3667.29 7147.59 3347.34 7175.54 2993.23 7175.54C2309.84 7175.54 1744.5 7035.76 1297.19 6756.19C856.095 6470.41 529.934 6072.81 318.706 5563.38C107.478 5047.73 1.8638 4448.22 1.8638 3764.83C1.8638 3261.61 70.2023 2801.88 206.879 2385.63C343.556 1963.18 542.359 1599.74 803.288 1295.32C1070.43 990.908 1396.59 754.83 1781.77 587.09C2173.16 419.35 2620.47 335.48 3123.69 335.48C3452.96 335.48 3782.23 378.968 4111.49 465.944C4446.97 546.708 4766.92 658.534 5071.34 801.424L4614.71 1947.65C4366.21 1829.61 4114.6 1727.1 3859.88 1640.12C3611.38 1553.15 3365.98 1509.66 3123.69 1509.66ZM8964.01 1901.05C9032.35 1901.05 9113.11 1904.16 9206.3 1910.37C9299.49 1916.58 9374.04 1925.9 9429.96 1938.33L9327.45 3242.97C9283.96 3230.55 9218.73 3221.23 9131.75 3215.02C9050.99 3202.59 8979.54 3196.38 8917.42 3196.38C8737.25 3196.38 8563.3 3221.23 8395.56 3270.93C8227.82 3314.42 8075.61 3385.86 7938.93 3485.26C7808.47 3584.66 7702.86 3718.24 7622.09 3885.98C7547.54 4047.5 7510.27 4249.41 7510.27 4491.7V7082.35H6121.75V1994.24H7174.79L7379.8 2851.58H7445.03C7544.43 2677.63 7668.69 2519.21 7817.79 2376.32C7966.89 2233.43 8137.74 2118.49 8330.33 2031.52C8529.13 1944.54 8740.36 1901.05 8964.01 1901.05ZM11742 1994.24V7082.35H10353.5V1994.24H11742ZM11052.4 -0.000466577C11257.4 -0.000466577 11434.5 49.7004 11583.6 149.102C11732.7 242.291 11807.2 419.35 11807.2 680.278C11807.2 934.995 11732.7 1112.05 11583.6 1211.45C11434.5 1310.86 11257.4 1360.56 11052.4 1360.56C10841.2 1360.56 10661 1310.86 10511.9 1211.45C10369 1112.05 10297.6 934.995 10297.6 680.278C10297.6 419.35 10369 242.291 10511.9 149.102C10661 49.7004 10841.2 -0.000466577 11052.4 -0.000466577ZM15261.6 7175.54C14758.4 7175.54 14329.7 7085.46 13975.6 6905.29C13621.5 6718.92 13351.2 6433.14 13164.9 6047.96C12978.5 5662.78 12885.3 5168.88 12885.3 4566.25C12885.3 3945 12990.9 3438.67 13202.1 3047.28C13413.4 2655.88 13705.4 2367 14078.1 2180.62C14457.1 1994.24 14892 1901.05 15382.8 1901.05C15730.7 1901.05 16032 1935.22 16286.7 2003.56C16547.6 2071.9 16774.4 2152.66 16967 2245.85L16556.9 3317.52C16339.5 3230.55 16134.5 3159.1 15941.9 3103.19C15755.5 3047.28 15569.1 3019.32 15382.8 3019.32C15140.5 3019.32 14938.6 3078.34 14777 3196.38C14615.5 3308.2 14494.4 3479.05 14413.6 3708.92C14339 3932.57 14301.8 4215.24 14301.8 4556.94C14301.8 4892.42 14342.1 5171.98 14422.9 5395.64C14509.9 5613.08 14634.1 5777.71 14795.7 5889.54C14957.2 5995.15 15152.9 6047.96 15382.8 6047.96C15674.8 6047.96 15932.6 6010.68 16156.2 5936.13C16379.9 5855.37 16597.3 5746.65 16808.5 5609.97V6793.47C16597.3 6930.15 16373.7 7026.44 16137.6 7082.35C15907.7 7144.48 15615.7 7175.54 15261.6 7175.54ZM20160.3 428.668C20750.5 428.668 21244.4 484.582 21642 596.408C22045.8 702.023 22347.1 879.081 22545.9 1127.58C22750.9 1369.88 22853.4 1699.14 22853.4 2115.39C22853.4 2363.89 22813.1 2590.65 22732.3 2795.67C22651.5 3000.68 22533.5 3168.42 22378.2 3298.89C22229.1 3429.35 22045.8 3513.22 21828.4 3550.5V3597.09C22052 3640.58 22253.9 3718.24 22434.1 3830.06C22614.3 3941.89 22757.2 4103.42 22862.8 4314.64C22968.4 4525.87 23021.2 4805.44 23021.2 5153.34C23021.2 5557.16 22921.8 5905.07 22723 6197.06C22530.4 6482.84 22250.8 6703.39 21884.3 6858.7C21517.7 7007.8 21082.9 7082.35 20579.6 7082.35H18091.5V428.668H20160.3ZM20318.7 3065.91C20728.7 3065.91 21011.4 3000.68 21166.7 2870.22C21328.3 2739.75 21409 2550.27 21409 2301.76C21409 2047.05 21315.8 1863.78 21129.5 1751.95C20943.1 1640.12 20648 1584.21 20244.2 1584.21H19498.6V3065.91H20318.7ZM19498.6 4184.18V5917.49H20421.2C20843.7 5917.49 21138.8 5836.73 21306.5 5675.2C21474.3 5507.46 21558.1 5286.91 21558.1 5013.56C21558.1 4845.82 21520.8 4699.82 21446.3 4575.57C21378 4451.32 21256.8 4355.03 21082.9 4286.69C20908.9 4218.35 20672.8 4184.18 20374.6 4184.18H19498.6ZM26337.5 1901.05C26809.7 1901.05 27213.5 1991.14 27549 2171.3C27890.7 2351.47 28154.7 2612.39 28341.1 2954.09C28527.5 3295.78 28620.7 3715.13 28620.7 4212.14V4883.1H25340.4C25352.9 5274.49 25467.8 5582.01 25685.2 5805.67C25908.9 6029.32 26216.4 6141.15 26607.8 6141.15C26937.1 6141.15 27235.3 6110.08 27502.4 6047.96C27769.5 5979.62 28046 5877.11 28331.8 5740.43V6812.11C28083.3 6936.36 27819.2 7026.44 27539.7 7082.35C27266.3 7144.48 26934 7175.54 26542.6 7175.54C26033.1 7175.54 25582.7 7082.35 25191.3 6895.98C24799.9 6703.39 24492.4 6414.5 24268.8 6029.32C24045.1 5644.14 23933.3 5159.56 23933.3 4575.57C23933.3 3979.16 24032.7 3485.26 24231.5 3093.87C24436.5 2696.26 24719.2 2398.06 25079.5 2199.26C25439.8 2000.45 25859.2 1901.05 26337.5 1901.05ZM26346.9 2888.85C26079.7 2888.85 25856.1 2975.83 25675.9 3149.78C25502 3323.74 25399.4 3593.98 25368.4 3960.53H27316C27316 3755.51 27278.8 3572.24 27204.2 3410.71C27135.9 3249.18 27030.3 3121.83 26887.4 3028.64C26744.5 2935.45 26564.3 2888.85 26346.9 2888.85ZM31889.9 6066.59C32045.2 6066.59 32194.3 6051.06 32337.2 6020C32480.1 5988.94 32623 5951.66 32765.9 5908.17V6942.57C32616.8 7004.7 32430.4 7057.5 32206.8 7100.99C31989.3 7150.69 31750.1 7175.54 31489.2 7175.54C31184.8 7175.54 30911.4 7125.84 30669.2 7026.44C30433.1 6927.04 30243.6 6756.19 30100.7 6513.9C29964 6265.4 29895.7 5923.71 29895.7 5488.82V3037.96H29234V2450.87L29998.2 1984.92L30398.9 913.25H31284.2V1994.24H32710V3037.96H31284.2V5488.82C31284.2 5681.41 31340.1 5827.41 31451.9 5926.81C31563.8 6020 31709.8 6066.59 31889.9 6066.59Z" fill="white"/>
</g>
<defs>
<filter id="filter0_d_1_2" x="0" y="-0.000455024" width="32767.8" height="7179.27" filterUnits="userSpaceOnUse" color-interpolation-filters="sRGB">
<feFlood flood-opacity="0" result="BackgroundImageFix"/>
<feColorMatrix in="SourceAlpha" type="matrix" values="0 0 0 0 0 0 0 0 0 0 0 0 0 0 0 0 0 0 127 0" result="hardAlpha"/>
<feOffset dy="4"/>
<feGaussianBlur stdDeviation="2"/>
<feComposite in2="hardAlpha" operator="out"/>
<feColorMatrix type="matrix" values="0 0 0 0 0 0 0 0 0 0 0 0 0 0 0 0 0 0 0.25 0"/>
<feBlend mode="normal" in2="BackgroundImageFix" result="effect1_dropShadow_1_2"/>
<feBlend mode="normal" in="SourceGraphic" in2="effect1_dropShadow_1_2" result="shape"/>
</filter>
</defs>
</svg>
