<svg width="702" height="652" viewBox="0 0 702 652" fill="none" xmlns="http://www.w3.org/2000/svg">
<mask id="path-1-inside-1_2_10" fill="white">
<path fill-rule="evenodd" clip-rule="evenodd" d="M337.77 5.54919C331.678 6.86442 247.776 38.567 239.575 42.6528C225.596 49.6166 215.597 59.696 209.241 73.2309C203.202 86.088 203.033 87.8152 202.994 136.719L202.957 181.093L199.961 182.66C195.536 184.975 190.037 190.145 188.19 193.727C180.56 208.525 190.526 228.231 207.242 231.403C211.282 232.169 211.456 232.595 212.297 243.812L212.696 249.141L208.984 250.152C204.412 251.397 197.926 256.048 195.037 260.153C188.802 269.011 188.221 277.62 192.843 292.668C197.628 308.251 202.811 316.126 213.119 323.479C216.399 325.82 219.261 328.66 219.478 329.792C224.335 355.125 234.255 376.988 246.521 389.396C250.247 393.165 255.71 396.921 263.972 401.393L276 407.904L278.047 415.544C283.136 434.538 284.621 455.493 281.742 467.685C280.971 470.95 280.197 473.732 280.022 473.867C278.653 474.923 153.934 511.786 142.664 514.465C134.718 516.355 124.154 519.349 119.188 521.119C81.5201 534.547 52.9893 558.393 42.604 585.127C40.9938 589.271 37.0491 603.991 33.8388 617.837L28 643.01L29.8219 646.432C30.8241 648.315 32.974 650.412 34.6002 651.093C36.9157 652.064 105.226 652.207 349.744 651.752C521.448 651.433 662.666 650.882 663.562 650.527C664.458 650.173 665.996 648.371 666.98 646.524C668.763 643.174 668.751 643.092 662.449 616.392C658.974 601.667 654.984 586.878 653.582 583.529C649.356 573.429 642.605 563.708 633.472 554.571C614.345 535.437 587.973 522.221 552.582 514.034C545.408 512.375 512.001 502.649 478.343 492.421L417.146 473.826L414.351 465.444C411.597 457.186 411.572 456.881 412.606 444.825C413.612 433.12 415.101 424.126 417.571 414.844C418.686 410.656 419.029 410.386 432.977 402.708C443.956 396.665 448.665 393.405 453.416 388.561C463.899 377.872 473.385 358.767 478.049 338.948C480.164 329.962 480.492 329.32 483.958 327.349C488.974 324.497 495.485 317.777 499.92 310.875C505.161 302.721 510.38 284.38 509.681 276.578C508.596 264.478 501.267 255.874 488.536 251.76C486.855 251.217 486.754 250.37 487.403 242.286C487.795 237.404 488.314 233.067 488.556 232.648C488.797 232.229 489.984 231.883 491.193 231.877C495.041 231.86 503.3 227.271 507.044 223.069C517.832 210.962 515.709 193.49 502.361 184.523L496.903 180.858V141.649C496.903 120.085 496.432 98.6446 495.857 94.0047C493.177 72.3846 480.689 54.1134 461.861 44.2654C457.683 42.0804 452.008 39.5271 449.249 38.5924C446.49 37.6567 424.49 29.8404 400.359 21.2234C362.927 7.8549 355.416 5.4883 349.195 5.1057C345.185 4.85909 340.043 5.05902 337.77 5.54919ZM361.467 67.5844C368.78 69.4862 368.724 69.7318 358.716 79.8751L349.443 89.2725L340.909 80.6839C336.214 75.9598 332.374 71.7919 332.374 71.4215C332.374 70.3813 340.383 67.356 345.415 66.4954C350.155 65.6856 355.581 66.053 361.467 67.5844ZM327.179 111.81C322.114 116.955 317.61 120.941 317.172 120.666C315.694 119.742 313.312 109.78 313.312 104.525C313.312 99.5173 315.441 90.3716 317.535 86.3823C318.428 84.6824 319.494 85.4435 327.462 93.4669L336.388 102.454L327.179 111.81ZM383.979 89.2796C386.198 95.1586 386.297 105.08 384.206 112.136C381.347 121.788 381.599 121.793 371.789 111.889L363 103.017L371.994 93.8758C376.941 88.8483 381.275 84.7352 381.625 84.7352C381.976 84.7352 383.034 86.7801 383.979 89.2796ZM362.433 136.342C353.851 140.329 343.955 140.368 333.774 136.451L330.999 135.385L340.445 125.79L349.89 116.195L358.73 125.075L367.571 133.955L362.433 136.342ZM369.995 160.864C408.576 164.465 440.536 174.006 475.835 192.46C492.713 201.283 494.896 202.8 494.896 205.704C494.896 208.391 490.44 212.605 487.599 212.605C486.293 212.605 476.76 209.414 466.412 205.515C420.952 188.383 397.285 182.884 361.969 181.251C325.998 179.587 292.1 184.085 259.64 194.831C254.122 196.658 241.718 201.252 232.074 205.04C222.431 208.829 213.296 211.928 211.772 211.928C205.301 211.928 202.574 204.311 207.723 200.614C212.327 197.308 234.96 185.637 245.093 181.344C284.841 164.503 329.867 157.12 369.995 160.864ZM385.043 202.855C398.39 204.867 412.802 208.073 425.119 211.771C433.997 214.436 467.613 226.546 468.733 227.484C468.966 227.678 468.572 235.64 467.86 245.177C466.784 259.581 466.792 262.946 467.904 265.049C469.821 268.672 473.902 270.451 480.299 270.451C484.506 270.451 486.352 270.941 487.848 272.455C491.295 275.942 491.33 279.017 488.036 289.525C483.783 303.092 479.993 307.879 469.099 313.444C462.871 316.625 462.336 317.507 460.893 326.983C457.613 348.515 445.746 372.484 434.946 379.392C424.868 385.838 365.718 418.034 361.713 419.254C356.153 420.947 344.928 421.064 338.763 419.494C336.271 418.858 318.804 409.808 299.945 399.381C270.354 383.019 264.809 379.578 259.451 374.249C249.6 364.452 241.148 345.137 238.52 326.413C236.991 315.53 236.239 314.37 227.756 309.796C218.871 305.005 214.687 299.032 210.864 285.677C207.076 272.443 208.725 269.403 220.272 268.332C232.408 267.207 233.43 264.379 231.014 238.601C230.445 232.526 230.165 227.368 230.392 227.138C231.44 226.078 260.824 215.14 271.034 212.008C284.925 207.75 303.484 203.872 319.168 201.952C333.713 200.172 370.599 200.678 385.043 202.855ZM265.795 247.755C262.936 250.648 262.26 255.708 264.234 259.44C265.743 262.291 271.184 264.362 277.164 264.362H282.212L282.268 269.182C282.358 276.781 284.168 280.833 288.405 282.93C291.677 284.547 292.464 284.593 295.428 283.34C300.393 281.241 301.492 279.265 302.045 271.451L302.547 264.362L308.18 264.347C315.256 264.328 318.356 262.787 320.591 258.177C322.009 255.248 322.141 253.935 321.268 251.401C319.188 245.368 317.852 245.08 291.915 245.08H268.441L265.795 247.755ZM380.451 248.046C378.756 249.761 377.519 252.096 377.519 253.58C377.519 260.557 382.617 264.362 391.966 264.362H397.583V271.328C397.583 277.431 397.898 278.611 400.128 280.868C403.576 284.356 406.981 285.059 411.026 283.117C415.269 281.08 416.644 277.967 416.644 270.403V264.362H422.262C429.457 264.362 434.236 262.103 435.636 258.04C437.305 253.198 436.942 251.248 433.777 248.046L430.844 245.08H407.114H383.384L380.451 248.046ZM343.739 306.435C337.623 309.127 336.45 316.339 341.325 321.271C343.775 323.749 345.073 324.238 349.215 324.238C353.232 324.238 354.672 323.731 356.816 321.562C361.348 316.977 360.178 309.477 354.465 306.488C350.88 304.614 347.912 304.598 343.739 306.435ZM326.668 343.642C322.687 344.784 319.332 348.961 319.332 352.774C319.332 354.535 320.476 356.962 322.257 358.98L325.182 362.294L347.29 362.618C366.038 362.893 369.917 362.693 372.818 361.301C381.494 357.136 379.734 344.863 370.214 343.154C365.102 342.236 330.205 342.628 326.668 343.642ZM312.845 428.667C326.889 436.6 332.082 438.591 341.813 439.776C357.066 441.633 367.659 439.241 383.538 430.351C389.883 426.799 395.202 424.014 395.356 424.161C395.511 424.309 395.118 427.803 394.484 431.926C393.849 436.049 393.271 444.674 393.2 451.093C393.083 461.503 393.384 463.706 395.986 471.493L398.903 480.223L395.631 486.009C386.961 501.337 373.886 515.795 363.421 521.624C358.556 524.335 357.02 524.669 349.428 524.669C342.192 524.669 340.066 524.254 335.383 521.926C325.051 516.789 312.39 503.015 302.699 486.367L299.001 480.016L300.639 471.302C302.486 461.473 302.8 442.388 301.263 433.266C300.705 429.954 300.039 425.988 299.783 424.453C299.527 422.919 299.571 421.662 299.881 421.662C300.19 421.662 306.025 424.814 312.845 428.667Z"/>
</mask>
<path fill-rule="evenodd" clip-rule="evenodd" d="M337.77 5.54919C331.678 6.86442 247.776 38.567 239.575 42.6528C225.596 49.6166 215.597 59.696 209.241 73.2309C203.202 86.088 203.033 87.8152 202.994 136.719L202.957 181.093L199.961 182.66C195.536 184.975 190.037 190.145 188.19 193.727C180.56 208.525 190.526 228.231 207.242 231.403C211.282 232.169 211.456 232.595 212.297 243.812L212.696 249.141L208.984 250.152C204.412 251.397 197.926 256.048 195.037 260.153C188.802 269.011 188.221 277.62 192.843 292.668C197.628 308.251 202.811 316.126 213.119 323.479C216.399 325.82 219.261 328.66 219.478 329.792C224.335 355.125 234.255 376.988 246.521 389.396C250.247 393.165 255.71 396.921 263.972 401.393L276 407.904L278.047 415.544C283.136 434.538 284.621 455.493 281.742 467.685C280.971 470.95 280.197 473.732 280.022 473.867C278.653 474.923 153.934 511.786 142.664 514.465C134.718 516.355 124.154 519.349 119.188 521.119C81.5201 534.547 52.9893 558.393 42.604 585.127C40.9938 589.271 37.0491 603.991 33.8388 617.837L28 643.01L29.8219 646.432C30.8241 648.315 32.974 650.412 34.6002 651.093C36.9157 652.064 105.226 652.207 349.744 651.752C521.448 651.433 662.666 650.882 663.562 650.527C664.458 650.173 665.996 648.371 666.98 646.524C668.763 643.174 668.751 643.092 662.449 616.392C658.974 601.667 654.984 586.878 653.582 583.529C649.356 573.429 642.605 563.708 633.472 554.571C614.345 535.437 587.973 522.221 552.582 514.034C545.408 512.375 512.001 502.649 478.343 492.421L417.146 473.826L414.351 465.444C411.597 457.186 411.572 456.881 412.606 444.825C413.612 433.12 415.101 424.126 417.571 414.844C418.686 410.656 419.029 410.386 432.977 402.708C443.956 396.665 448.665 393.405 453.416 388.561C463.899 377.872 473.385 358.767 478.049 338.948C480.164 329.962 480.492 329.32 483.958 327.349C488.974 324.497 495.485 317.777 499.92 310.875C505.161 302.721 510.38 284.38 509.681 276.578C508.596 264.478 501.267 255.874 488.536 251.76C486.855 251.217 486.754 250.37 487.403 242.286C487.795 237.404 488.314 233.067 488.556 232.648C488.797 232.229 489.984 231.883 491.193 231.877C495.041 231.86 503.3 227.271 507.044 223.069C517.832 210.962 515.709 193.49 502.361 184.523L496.903 180.858V141.649C496.903 120.085 496.432 98.6446 495.857 94.0047C493.177 72.3846 480.689 54.1134 461.861 44.2654C457.683 42.0804 452.008 39.5271 449.249 38.5924C446.49 37.6567 424.49 29.8404 400.359 21.2234C362.927 7.8549 355.416 5.4883 349.195 5.1057C345.185 4.85909 340.043 5.05902 337.77 5.54919ZM361.467 67.5844C368.78 69.4862 368.724 69.7318 358.716 79.8751L349.443 89.2725L340.909 80.6839C336.214 75.9598 332.374 71.7919 332.374 71.4215C332.374 70.3813 340.383 67.356 345.415 66.4954C350.155 65.6856 355.581 66.053 361.467 67.5844ZM327.179 111.81C322.114 116.955 317.61 120.941 317.172 120.666C315.694 119.742 313.312 109.78 313.312 104.525C313.312 99.5173 315.441 90.3716 317.535 86.3823C318.428 84.6824 319.494 85.4435 327.462 93.4669L336.388 102.454L327.179 111.81ZM383.979 89.2796C386.198 95.1586 386.297 105.08 384.206 112.136C381.347 121.788 381.599 121.793 371.789 111.889L363 103.017L371.994 93.8758C376.941 88.8483 381.275 84.7352 381.625 84.7352C381.976 84.7352 383.034 86.7801 383.979 89.2796ZM362.433 136.342C353.851 140.329 343.955 140.368 333.774 136.451L330.999 135.385L340.445 125.79L349.89 116.195L358.73 125.075L367.571 133.955L362.433 136.342ZM369.995 160.864C408.576 164.465 440.536 174.006 475.835 192.46C492.713 201.283 494.896 202.8 494.896 205.704C494.896 208.391 490.44 212.605 487.599 212.605C486.293 212.605 476.76 209.414 466.412 205.515C420.952 188.383 397.285 182.884 361.969 181.251C325.998 179.587 292.1 184.085 259.64 194.831C254.122 196.658 241.718 201.252 232.074 205.04C222.431 208.829 213.296 211.928 211.772 211.928C205.301 211.928 202.574 204.311 207.723 200.614C212.327 197.308 234.96 185.637 245.093 181.344C284.841 164.503 329.867 157.12 369.995 160.864ZM385.043 202.855C398.39 204.867 412.802 208.073 425.119 211.771C433.997 214.436 467.613 226.546 468.733 227.484C468.966 227.678 468.572 235.64 467.86 245.177C466.784 259.581 466.792 262.946 467.904 265.049C469.821 268.672 473.902 270.451 480.299 270.451C484.506 270.451 486.352 270.941 487.848 272.455C491.295 275.942 491.33 279.017 488.036 289.525C483.783 303.092 479.993 307.879 469.099 313.444C462.871 316.625 462.336 317.507 460.893 326.983C457.613 348.515 445.746 372.484 434.946 379.392C424.868 385.838 365.718 418.034 361.713 419.254C356.153 420.947 344.928 421.064 338.763 419.494C336.271 418.858 318.804 409.808 299.945 399.381C270.354 383.019 264.809 379.578 259.451 374.249C249.6 364.452 241.148 345.137 238.52 326.413C236.991 315.53 236.239 314.37 227.756 309.796C218.871 305.005 214.687 299.032 210.864 285.677C207.076 272.443 208.725 269.403 220.272 268.332C232.408 267.207 233.43 264.379 231.014 238.601C230.445 232.526 230.165 227.368 230.392 227.138C231.44 226.078 260.824 215.14 271.034 212.008C284.925 207.75 303.484 203.872 319.168 201.952C333.713 200.172 370.599 200.678 385.043 202.855ZM265.795 247.755C262.936 250.648 262.26 255.708 264.234 259.44C265.743 262.291 271.184 264.362 277.164 264.362H282.212L282.268 269.182C282.358 276.781 284.168 280.833 288.405 282.93C291.677 284.547 292.464 284.593 295.428 283.34C300.393 281.241 301.492 279.265 302.045 271.451L302.547 264.362L308.18 264.347C315.256 264.328 318.356 262.787 320.591 258.177C322.009 255.248 322.141 253.935 321.268 251.401C319.188 245.368 317.852 245.08 291.915 245.08H268.441L265.795 247.755ZM380.451 248.046C378.756 249.761 377.519 252.096 377.519 253.58C377.519 260.557 382.617 264.362 391.966 264.362H397.583V271.328C397.583 277.431 397.898 278.611 400.128 280.868C403.576 284.356 406.981 285.059 411.026 283.117C415.269 281.08 416.644 277.967 416.644 270.403V264.362H422.262C429.457 264.362 434.236 262.103 435.636 258.04C437.305 253.198 436.942 251.248 433.777 248.046L430.844 245.08H407.114H383.384L380.451 248.046ZM343.739 306.435C337.623 309.127 336.45 316.339 341.325 321.271C343.775 323.749 345.073 324.238 349.215 324.238C353.232 324.238 354.672 323.731 356.816 321.562C361.348 316.977 360.178 309.477 354.465 306.488C350.88 304.614 347.912 304.598 343.739 306.435ZM326.668 343.642C322.687 344.784 319.332 348.961 319.332 352.774C319.332 354.535 320.476 356.962 322.257 358.98L325.182 362.294L347.29 362.618C366.038 362.893 369.917 362.693 372.818 361.301C381.494 357.136 379.734 344.863 370.214 343.154C365.102 342.236 330.205 342.628 326.668 343.642ZM312.845 428.667C326.889 436.6 332.082 438.591 341.813 439.776C357.066 441.633 367.659 439.241 383.538 430.351C389.883 426.799 395.202 424.014 395.356 424.161C395.511 424.309 395.118 427.803 394.484 431.926C393.849 436.049 393.271 444.674 393.2 451.093C393.083 461.503 393.384 463.706 395.986 471.493L398.903 480.223L395.631 486.009C386.961 501.337 373.886 515.795 363.421 521.624C358.556 524.335 357.02 524.669 349.428 524.669C342.192 524.669 340.066 524.254 335.383 521.926C325.051 516.789 312.39 503.015 302.699 486.367L299.001 480.016L300.639 471.302C302.486 461.473 302.8 442.388 301.263 433.266C300.705 429.954 300.039 425.988 299.783 424.453C299.527 422.919 299.571 421.662 299.881 421.662C300.19 421.662 306.025 424.814 312.845 428.667Z" fill="#F49867" stroke="black" stroke-width="2" mask="url(#path-1-inside-1_2_10)"/>
</svg>
